<svg width="19" height="18" viewBox="0 0 19 18" fill="none" xmlns="http://www.w3.org/2000/svg">
<path fill-rule="evenodd" clip-rule="evenodd" d="M9.5 0.75C4.94365 0.75 1.25 4.44365 1.25 9C1.25 13.5564 4.94365 17.25 9.5 17.25C14.0564 17.25 17.75 13.5564 17.75 9C17.75 4.44365 14.0564 0.75 9.5 0.75ZM13.4053 7.28033C13.6982 6.98744 13.6982 6.51256 13.4053 6.21967C13.1124 5.92678 12.6376 5.92678 12.3447 6.21967L8.375 10.1893L6.65533 8.46967C6.36244 8.17678 5.88756 8.17678 5.59467 8.46967C5.30178 8.76256 5.30178 9.23744 5.59467 9.53033L7.84467 11.7803C8.13756 12.0732 8.61244 12.0732 8.90533 11.7803L13.4053 7.28033Z" fill="#48AB3A"/>
</svg>
